<svg xmlns="http://www.w3.org/2000/svg" version="1.1" xmlns:xlink="http://www.w3.org/1999/xlink" xmlns:svgjs="http://svgjs.dev/svgjs" width="1440" height="560" preserveAspectRatio="none" viewBox="0 0 1440 560"><g mask="url(&quot;#SvgjsMask1003&quot;)" fill="none"><path d="M 0,107 C 57.6,171.4 172.8,407.8 288,429 C 403.2,450.2 460.8,217.6 576,213 C 691.2,208.4 748.8,427.6 864,406 C 979.2,384.4 1036.8,127.6 1152,105 C 1267.2,82.4 1382.4,255.4 1440,293L1440 560L0 560z" fill="rgba(65, 125, 188, 1)"></path><path d="M 0,468 C 96,417 288,222.4 480,213 C 672,203.6 768,452 960,421 C 1152,390 1344,130.6 1440,58L1440 560L0 560z" fill="rgba(72, 141, 215, 1)"></path></g><defs><mask id="SvgjsMask1003"><rect width="1440" height="560" fill="#ffffff"></rect></mask></defs></svg>